<?xml version="1.0" ?><svg viewBox="0 0 64 64" xmlns="http://www.w3.org/2000/svg"><g data-name="16-audio" id="_16-audio"><path d="M62,33h1a1,1,0,0,0,1-1A32,32,0,0,0,0,32a1,1,0,0,0,1,1H2v6.355A8.958,8.958,0,0,0,0,45V55a9.01,9.01,0,0,0,9,9h6a3,3,0,0,0,3-3V39a3,3,0,0,0-3-3H9a8.935,8.935,0,0,0-1,.059V33H9a1,1,0,0,0,1-1,22,22,0,0,1,44,0,1,1,0,0,0,1,1h1v3.059A8.935,8.935,0,0,0,55,36H49a3,3,0,0,0-3,3V61a3,3,0,0,0,3,3h6a9.01,9.01,0,0,0,9-9V45a8.958,8.958,0,0,0-2-5.645ZM15,38a1,1,0,0,1,1,1V61a1,1,0,0,1-1,1H12V41a1,1,0,0,0-2,0V62H9a7.009,7.009,0,0,1-7-7V45a7.009,7.009,0,0,1,7-7ZM6,36.525a8.919,8.919,0,0,0-2,1V33H6ZM32,8A24.03,24.03,0,0,0,8.021,31h-6a30,30,0,0,1,59.966,0h-6A24.03,24.03,0,0,0,32,8ZM58,33h2v4.522a8.919,8.919,0,0,0-2-1Zm4,22a7.009,7.009,0,0,1-7,7H49a1,1,0,0,1-1-1V39a1,1,0,0,1,1-1h3V59a1,1,0,0,0,2,0V38h1a7.009,7.009,0,0,1,7,7Z"/><path d="M5,45H7a1,1,0,0,0,0-2H5a1,1,0,0,0,0,2Z"/><path d="M7,49H5a1,1,0,0,0,0,2H7a1,1,0,0,0,0-2Z"/><path d="M7,55H5a1,1,0,0,0,0,2H7a1,1,0,0,0,0-2Z"/><path d="M59,43H57a1,1,0,0,0,0,2h2a1,1,0,0,0,0-2Z"/><path d="M59,49H57a1,1,0,0,0,0,2h2a1,1,0,0,0,0-2Z"/><path d="M59,55H57a1,1,0,0,0,0,2h2a1,1,0,0,0,0-2Z"/></g></svg>